<?xml version="1.0" encoding="UTF-8" standalone="no"?>
<svg
   xmlns:dc="http://purl.org/dc/elements/1.1/"
   xmlns:cc="http://creativecommons.org/ns#"
   xmlns:rdf="http://www.w3.org/1999/02/22-rdf-syntax-ns#"
   xmlns:svg="http://www.w3.org/2000/svg"
   xmlns="http://www.w3.org/2000/svg"
   xmlns:sodipodi="http://sodipodi.sourceforge.net/DTD/sodipodi-0.dtd"
   xmlns:inkscape="http://www.inkscape.org/namespaces/inkscape"
   width="12.8056in"
   height="22.0694in"
   viewBox="0 0 922 1589"
   id="svg3383"
   version="1.1"
   inkscape:version="0.91 r13725"
   sodipodi:docname="q.svg">
  <metadata
     id="metadata3390">
    <rdf:RDF>
      <cc:Work
         rdf:about="">
        <dc:format>image/svg+xml</dc:format>
        <dc:type
           rdf:resource="http://purl.org/dc/dcmitype/StillImage" />
      </cc:Work>
    </rdf:RDF>
  </metadata>
  <defs
     id="defs3388" />
  <sodipodi:namedview
     pagecolor="#ffffff"
     bordercolor="#666666"
     borderopacity="1"
     objecttolerance="10"
     gridtolerance="10"
     guidetolerance="10"
     inkscape:pageopacity="0"
     inkscape:pageshadow="2"
     inkscape:window-width="1366"
     inkscape:window-height="710"
     id="namedview3386"
     showgrid="false"
     inkscape:zoom="0.18903685"
     inkscape:cx="-967.67079"
     inkscape:cy="926.2656"
     inkscape:window-x="0"
     inkscape:window-y="25"
     inkscape:window-maximized="1"
     inkscape:current-layer="svg3383" />
  <path
     style="fill:#b3b3b3"
     d="m 355.57317,1377.8239 c -42.13214,-36.0636 -59.97555,-103.686 -45.68347,-173.1298 21.45475,-104.2466 81.16999,-202.3573 223.12693,-366.5922 102.06449,-118.082 151.47322,-197.20165 191.60222,-306.81848 16.25609,-44.4053 17.45395,-52.23844 17.7969,-116.37943 C 742.85111,333.5437 731.83167,289.63417 699.28992,243.05481 660.87249,188.06516 603.39201,168.35138 529.0775,184.67789 434.68154,205.4162 338.72068,294.73814 303.44381,394.70143 c -26.3381,74.63369 -11.59588,150.1137 34.71273,177.72883 l 20.29462,12.10225 -28.61231,14.98046 c -20.65318,10.81334 -49.87724,37.3542 -105.05772,95.41193 -52.08406,54.79984 -83.54058,83.63089 -98.70987,90.4713 L 103.8068,795.4361 83.267752,771.80419 C 14.212991,692.35101 -4.8522455,617.91113 20.337448,526.09391 77.138069,319.05385 318.95523,122.20665 583.08761,67.996582 c 67.39776,-13.832591 159.63966,-14.991238 212.06426,-2.66373 117.0448,27.52278 197.75567,110.925768 223.28523,230.732838 13.1261,61.59942 7.6089,193.48425 -10.6775,255.23543 C 966.08066,692.0462 890.41568,789.02063 695.17374,951.92003 548.70431,1074.1263 490.2976,1133.9027 446.45283,1206.4736 l -26.35773,43.6268 1.17107,60.2138 c 1.11732,57.4504 0.5821,60.8028 -11.66199,73.0469 -17.33605,17.336 -28.66515,16.175 -54.03101,-5.5372 z"
     id="path3460"
     inkscape:connector-curvature="0"
     transform="matrix(0.8000016,0,0,0.8000016,-0.00253907,0)" />
  <path
     style="fill:#b3b3b3"
     d="m 537.88218,1442.9739 c -11.80639,-4.3143 -16.42082,-11.6259 -25.12738,-39.8144 -12.85858,-41.6313 -13.03766,-47.5099 -2.24709,-73.7665 45.06072,-109.6456 103.69372,-180.6331 262.0328,-317.2457 48.3707,-41.73347 109.98365,-99.15672 136.91766,-127.6072 86.06721,-90.91307 152.01853,-203.3202 188.63983,-321.51684 13.9571,-45.04708 14.736,-52.8775 14.471,-145.47428 -0.2645,-92.35794 -1.2145,-101.40073 -16.8868,-160.71119 C 1066.5474,146.58027 1014.1366,58.235449 962.78928,32.830842 949.20731,26.111016 943.44491,20.369259 946.051,16.152513 c 2.80488,-4.538394 13.51779,0.743405 36.40801,17.950299 105.55719,79.348768 159.71749,207.753178 159.71749,378.661558 0,106.81869 -20.3325,188.51106 -74.2637,298.37816 -55.4989,113.06081 -104.69021,169.22108 -356.78264,407.32797 -99.77992,94.2444 -133.84874,134.1388 -161.30204,188.8839 -20.21726,40.3156 -20.36875,41.073 -13.7535,68.7696 3.67892,15.4028 10.63,37.2227 15.44686,48.4885 12.06662,28.222 12.33958,27.8545 -13.6393,18.3614 z"
     id="path3470"
     inkscape:connector-curvature="0"
     transform="matrix(0.8000016,0,0,0.8000016,-0.00253907,0)" />
  <path
     style="fill:#b3b3b3"
     d="m 494.45437,1827.3763 c -94.82508,-38.9811 -151.09034,-111.2207 -155.44615,-199.5792 -2.47831,-50.2728 9.7834,-80.1596 42.8702,-104.4919 57.3549,-42.1792 126.86734,-48.2969 190.85358,-16.7965 39.59059,19.4904 64.93626,47.5723 88.6238,98.1914 17.12618,36.5978 25.34711,95.1173 18.49406,131.6471 -8.05024,42.9116 -88.05106,104.3857 -135.44037,104.075 -10.1832,-0.067 -32.66301,-5.9374 -49.95512,-13.0459 z"
     id="path3472"
     inkscape:connector-curvature="0"
     transform="matrix(0.8000016,0,0,0.8000016,-0.00253907,0)" />
  <path
     style="fill:#b3b3b3"
     d="m 568.5031,1961.6317 c -41.06832,-14.1223 -93.26449,-48.593 -131.21558,-86.6555 -37.43453,-37.5446 -39.43987,-47.0921 -4.00861,-19.0853 69.94034,55.2846 129.09177,80.5094 190.63971,81.297 34.49862,0.4415 43.60769,-1.5439 68.00477,-14.8224 39.53526,-21.5178 67.13275,-54.7703 79.98191,-96.3711 17.78739,-57.5888 11.10218,-115.2673 -23.28697,-200.9145 -10.17262,-25.3352 -17.69205,-46.8677 -16.70982,-47.8499 3.05747,-3.0575 23.52088,28.3103 39.5663,60.65 28.12481,56.6859 41.5493,130.4077 32.58101,178.9217 -11.46151,62.001 -51.88997,123.0913 -96.53112,145.8655 -27.82925,14.1974 -96.20462,13.6882 -139.0216,-1.0355 z"
     id="path3474"
     inkscape:connector-curvature="0"
     transform="matrix(0.8000016,0,0,0.8000016,-0.00253907,0)" />
  <path
     style="fill:#b3b3b3"
     d="m 413.7144,644.57767 c 31.1495,-29.33695 56.63545,-55.16079 56.63545,-57.3863 0,-2.22551 -9.53519,-8.34615 -21.18931,-13.60143 -48.57329,-21.90349 -85.25721,-78.47103 -85.74013,-132.21342 -0.34846,-38.77846 20.55942,-79.78751 62.63363,-122.85059 44.79068,-45.8434 90.94521,-67.68935 142.40959,-67.40556 31.549,0.17396 41.71288,2.69361 66.12468,16.39248 16.84645,9.45351 37.08644,26.97212 48.65634,42.11423 24.39176,31.92269 25.69419,41.47788 2.67164,19.60032 -32.5352,-30.91712 -59.782,-41.14875 -109.76696,-41.21931 -39.33312,-0.0555 -49.27324,1.97838 -79.36476,16.23923 -56.53675,26.79368 -105.87529,86.42446 -105.73468,127.79144 0.12806,37.67692 55.37777,100.83927 111.11103,127.02388 l 29.56954,13.89236 -37.30277,25.05041 c -20.51653,13.77772 -58.2322,41.89431 -83.81262,62.48129 -25.58042,20.58699 -48.09077,37.4309 -50.02299,37.4309 -1.93223,0 21.97281,-24.00297 53.12232,-53.33993 z"
     id="path3476"
     inkscape:connector-curvature="0"
     transform="matrix(0.8000016,0,0,0.8000016,-0.00253907,0)" />
  <path
     style="fill:#b3b3b3"
     d="m 181.25693,829.31734 -8.78792,-9.57488 6.46714,-1.53622 c 21.75596,-5.16798 66.95841,-34.57022 127.3436,-82.83151 27.02678,-21.60046 78.95487,-65.62918 82.63782,-70.06686 0.99489,-1.19877 2.47134,-2.17958 3.281,-2.17958 0.80966,0 -6.24731,7.73658 -15.68215,17.19241 -9.43484,9.45583 -16.27016,17.18871 -15.18959,17.18419 1.08055,-0.005 8.72615,-5.09587 16.9902,-11.31411 8.26406,-6.21823 15.24925,-11.0822 15.52264,-10.8088 0.2734,0.2734 -9.16615,8.5473 -20.97677,18.38644 -11.81062,9.83915 -40.50119,33.79614 -63.75682,53.23775 -23.25562,19.4416 -52.00527,42.89077 -63.88811,52.10924 -21.41765,16.61541 -53.23989,39.85052 -54.51189,39.80203 -0.36368,-0.0139 -4.6158,-4.33391 -9.44915,-9.6001 z"
     id="path3478"
     inkscape:connector-curvature="0"
     transform="matrix(0.8000016,0,0,0.8000016,-0.00253907,0)" />
</svg>
