<?xml version="1.0" encoding="UTF-8"?><svg xmlns="http://www.w3.org/2000/svg" xmlns:xlink="http://www.w3.org/1999/xlink" fill-opacity="1" color-rendering="auto" color-interpolation="auto" text-rendering="auto" stroke="black" stroke-linecap="square" width="667" stroke-miterlimit="10" shape-rendering="auto" stroke-opacity="1" fill="black" stroke-dasharray="none" font-weight="normal" stroke-width="1" height="450" font-family="'Dialog'" font-style="normal" stroke-linejoin="miter" font-size="12px" stroke-dashoffset="0" image-rendering="auto">
  <!--Generated by ySVG 2.5-->
  <defs id="genericDefs"/>
  <g>
    <g fill="white" text-rendering="geometricPrecision" shape-rendering="geometricPrecision" transform="translate(-161,-94)" stroke="white">
      <rect x="161" width="667" height="450" y="94" clip-path="url(#clipPath2)" stroke="none"/>
    </g>
    <g fill="rgb(255,204,0)" text-rendering="geometricPrecision" shape-rendering="geometricPrecision" transform="matrix(1,0,0,1,-161,-94)" stroke="rgb(255,204,0)">
      <rect x="262.75" y="398.5" clip-path="url(#clipPath2)" width="166" rx="4" ry="4" height="72" stroke="none"/>
    </g>
    <g font-size="17px" stroke-linecap="butt" transform="matrix(1,0,0,1,-161,-94)" text-rendering="geometricPrecision" font-family="'DejaVu Sans'" shape-rendering="geometricPrecision" stroke-miterlimit="1.45">
      <text x="285.6357" xml:space="preserve" y="440.3853" clip-path="url(#clipPath2)" stroke="none">Runner Image</text>
      <rect x="262.75" y="398.5" clip-path="url(#clipPath2)" fill="none" width="166" rx="4" ry="4" height="72"/>
    </g>
    <g fill="rgb(255,204,0)" text-rendering="geometricPrecision" shape-rendering="geometricPrecision" transform="matrix(1,0,0,1,-161,-94)" stroke="rgb(255,204,0)">
      <path d="M286.75 453.2361 L296.6351 446.0851 L310.6149 446.0851 L320.5 453.2361 L320.5 463.349 L310.6149 470.5 L296.6351 470.5 L286.75 463.349 Z" fill-rule="evenodd" clip-path="url(#clipPath2)" stroke="none"/>
    </g>
    <g text-rendering="geometricPrecision" stroke-miterlimit="1.45" shape-rendering="geometricPrecision" font-family="sans-serif" transform="matrix(1,0,0,1,-161,-94)" stroke-linecap="butt">
      <text x="292.3164" xml:space="preserve" y="462.4468" clip-path="url(#clipPath2)" stroke="none">dep</text>
      <path fill="none" d="M286.75 453.2361 L296.6351 446.0851 L310.6149 446.0851 L320.5 453.2361 L320.5 463.349 L310.6149 470.5 L296.6351 470.5 L286.75 463.349 Z" clip-path="url(#clipPath2)" fill-rule="evenodd"/>
    </g>
    <g fill="rgb(204,255,204)" text-rendering="geometricPrecision" shape-rendering="geometricPrecision" transform="matrix(1,0,0,1,-161,-94)" stroke="rgb(204,255,204)">
      <rect x="646.75" y="339.75" clip-path="url(#clipPath2)" width="166" rx="4" ry="4" height="72" stroke="none"/>
    </g>
    <g text-rendering="geometricPrecision" stroke-miterlimit="1.45" shape-rendering="geometricPrecision" transform="matrix(1,0,0,1,-161,-94)" stroke-linecap="butt">
      <rect x="646.75" y="339.75" clip-path="url(#clipPath2)" fill="none" width="166" rx="4" ry="4" height="72"/>
    </g>
    <g fill="rgb(223,223,223)" text-rendering="geometricPrecision" shape-rendering="geometricPrecision" transform="matrix(1,0,0,1,-161,-94)" stroke="rgb(223,223,223)">
      <rect x="176.5" y="109.25" clip-path="url(#clipPath2)" width="166" rx="4" ry="4" height="72" stroke="none"/>
    </g>
    <g font-size="17px" stroke-linecap="butt" transform="matrix(1,0,0,1,-161,-94)" text-rendering="geometricPrecision" font-family="'DejaVu Sans'" shape-rendering="geometricPrecision" stroke-miterlimit="1.45">
      <text x="203.6191" xml:space="preserve" y="151.1353" clip-path="url(#clipPath2)" stroke="none">debian:jessie</text>
      <rect x="176.5" y="109.25" clip-path="url(#clipPath2)" fill="none" width="166" rx="4" ry="4" height="72"/>
    </g>
    <g fill="rgb(255,204,0)" text-rendering="geometricPrecision" shape-rendering="geometricPrecision" transform="matrix(1,0,0,1,-161,-94)" stroke="rgb(255,204,0)">
      <rect x="176.5" y="223" clip-path="url(#clipPath2)" width="166" rx="4" ry="4" height="72" stroke="none"/>
    </g>
    <g font-size="17px" stroke-linecap="butt" transform="matrix(1,0,0,1,-161,-94)" text-rendering="geometricPrecision" font-family="'DejaVu Sans'" shape-rendering="geometricPrecision" stroke-miterlimit="1.45">
      <text x="210.5378" xml:space="preserve" y="264.8853" clip-path="url(#clipPath2)" stroke="none">Root Image</text>
      <rect x="176.5" y="223" clip-path="url(#clipPath2)" fill="none" width="166" rx="4" ry="4" height="72"/>
    </g>
    <g fill="rgb(255,204,0)" text-rendering="geometricPrecision" shape-rendering="geometricPrecision" transform="matrix(1,0,0,1,-161,-94)" stroke="rgb(255,204,0)">
      <rect x="410.5" y="223" clip-path="url(#clipPath2)" width="166" rx="4" ry="4" height="72" stroke="none"/>
    </g>
    <g font-size="17px" stroke-linecap="butt" transform="matrix(1,0,0,1,-161,-94)" text-rendering="geometricPrecision" font-family="'DejaVu Sans'" shape-rendering="geometricPrecision" stroke-miterlimit="1.45">
      <text x="425.9192" xml:space="preserve" y="264.8853" clip-path="url(#clipPath2)" stroke="none">Compiler Image</text>
      <rect x="410.5" y="223" clip-path="url(#clipPath2)" fill="none" width="166" rx="4" ry="4" height="72"/>
    </g>
    <g fill="rgb(51,204,204)" text-rendering="geometricPrecision" shape-rendering="geometricPrecision" transform="matrix(1,0,0,1,-161,-94)" stroke="rgb(51,204,204)">
      <rect x="644.5" y="223" clip-path="url(#clipPath2)" width="166" rx="4" ry="4" height="72" stroke="none"/>
    </g>
    <g font-size="17px" stroke-linecap="butt" transform="matrix(1,0,0,1,-161,-94)" text-rendering="geometricPrecision" font-family="'DejaVu Sans'" shape-rendering="geometricPrecision" stroke-miterlimit="1.45">
      <text x="689.2417" xml:space="preserve" y="264.8853" clip-path="url(#clipPath2)" stroke="none">Compiler</text>
      <rect x="644.5" y="223" clip-path="url(#clipPath2)" fill="none" width="166" rx="4" ry="4" height="72"/>
    </g>
    <g fill="rgb(255,204,0)" text-rendering="geometricPrecision" shape-rendering="geometricPrecision" transform="matrix(1,0,0,1,-161,-94)" stroke="rgb(255,204,0)">
      <path d="M653.5 361.651 L663.3851 354.5 L677.3649 354.5 L687.25 361.651 L687.25 371.7639 L677.3649 378.9149 L663.3851 378.9149 L653.5 371.7639 Z" fill-rule="evenodd" clip-path="url(#clipPath2)" stroke="none"/>
    </g>
    <g text-rendering="geometricPrecision" stroke-miterlimit="1.45" shape-rendering="geometricPrecision" font-family="sans-serif" transform="matrix(1,0,0,1,-161,-94)" stroke-linecap="butt">
      <text x="659.0664" xml:space="preserve" y="370.8618" clip-path="url(#clipPath2)" stroke="none">dep</text>
      <path fill="none" d="M653.5 361.651 L663.3851 354.5 L677.3649 354.5 L687.25 361.651 L687.25 371.7639 L677.3649 378.9149 L663.3851 378.9149 L653.5 371.7639 Z" clip-path="url(#clipPath2)" fill-rule="evenodd"/>
    </g>
    <g fill="rgb(255,204,0)" text-rendering="geometricPrecision" shape-rendering="geometricPrecision" transform="matrix(1,0,0,1,-161,-94)" stroke="rgb(255,204,0)">
      <path d="M710.625 361.651 L720.5101 354.5 L734.4899 354.5 L744.375 361.651 L744.375 371.7639 L734.4899 378.9149 L720.5101 378.9149 L710.625 371.7639 Z" fill-rule="evenodd" clip-path="url(#clipPath2)" stroke="none"/>
    </g>
    <g text-rendering="geometricPrecision" stroke-miterlimit="1.45" shape-rendering="geometricPrecision" font-family="sans-serif" transform="matrix(1,0,0,1,-161,-94)" stroke-linecap="butt">
      <text x="715.7783" xml:space="preserve" y="370.8618" clip-path="url(#clipPath2)" stroke="none">App</text>
      <path fill="none" d="M710.625 361.651 L720.5101 354.5 L734.4899 354.5 L744.375 361.651 L744.375 371.7639 L734.4899 378.9149 L720.5101 378.9149 L710.625 371.7639 Z" clip-path="url(#clipPath2)" fill-rule="evenodd"/>
    </g>
    <g text-rendering="geometricPrecision" shape-rendering="geometricPrecision" transform="matrix(0.4904,0,0,0.5537,600,258.637)">
      <g clip-path="url(#clipPath3)">
        <svg xml:space="preserve" opacity="1" writing-mode="lr-tb" stop-color="rgb(0, 0, 0)" shape-rendering="auto" glyph-orientation-horizontal="0deg" color-profile="auto" lighting-color="rgb(255, 255, 255)" color="rgb(0, 0, 0)" font-weight="400" alignment-baseline="auto" font-style="normal" version="1.1" color-interpolation-filters="linearrgb" text-anchor="start" stroke-linecap="butt" color-interpolation="srgb" font-variant="normal" word-spacing="normal" fill-opacity="1" text-rendering="auto" clip-path="none" text-decoration="none" letter-spacing="normal" viewBox="0 0 40 48" glyph-orientation-vertical="auto" display="inline" font-size-adjust="none" overflow="visible" fill="rgb(0, 0, 0)" font-stretch="normal" stroke-dasharray="none" stroke-miterlimit="4" stop-opacity="1" color-rendering="auto" font-size="12" pointer-events="visiblepainted" mask="none" direction="ltr" baseline-shift="baseline" enable-background="new 0 0 40 48" fill-rule="nonzero" image-rendering="auto" stroke-dashoffset="0" width="40px" marker-end="none" clip="auto" cursor="auto" stroke="none" filter="none" visibility="visible" kerning="auto" stroke-width="1" font-family="&quot;Arial&quot;,&quot;Helvetica&quot;,sans-serif" flood-opacity="1" clip-rule="nonzero" src="none" height="48px" unicode-bidi="normal" stroke-linejoin="miter" stroke-opacity="1" flood-color="rgb(0, 0, 0)" dominant-baseline="auto" marker-start="none" x="0px" marker-mid="none" y="0px">
<defs>
<clipPath clipPathUnits="userSpaceOnUse" id="clipPath1">
              <path d="M0 0 L667 0 L667 450 L0 450 L0 0 Z"/>
            </clipPath>
            <clipPath clipPathUnits="userSpaceOnUse" id="clipPath2">
              <path d="M161 94 L828 94 L828 544 L161 544 L161 94 Z"/>
            </clipPath>
            <clipPath clipPathUnits="userSpaceOnUse" id="clipPath3">
              <path d="M-1223.3766 -467.1124 L136.6104 -467.1124 L136.6104 345.6119 L-1223.3766 345.6119 L-1223.3766 -467.1124 Z"/>
            </clipPath>
          </defs>
<linearGradient gradientTransform="matrix(1 0 0 1 -370.2002 -614.5742)" x1="370.2002" x2="409.4502" gradientUnits="userSpaceOnUse" y1="655.0938" y2="655.0938" id="svg1.SVGID_1_">
	<stop offset="0" style="stop-color:#4D4D4D"/>
	<stop offset="0.0558" style="stop-color:#5F5F5F"/>
	<stop offset="0.2103" style="stop-color:#8D8D8D"/>
	<stop offset="0.3479" style="stop-color:#AEAEAE"/>
	<stop offset="0.4623" style="stop-color:#C2C2C2"/>
	<stop offset="0.5394" style="stop-color:#C9C9C9"/>
	<stop offset="0.6247" style="stop-color:#C5C5C5"/>
	<stop offset="0.7072" style="stop-color:#BABABA"/>
	<stop offset="0.7885" style="stop-color:#A6A6A6"/>
	<stop offset="0.869" style="stop-color:#8B8B8B"/>
	<stop offset="0.9484" style="stop-color:#686868"/>
	<stop offset="1" style="stop-color:#4D4D4D"/>
</linearGradient>
<path fill="url(#svg1.SVGID_1_)" d="M19.625,37.613C8.787,37.613,0,35.738,0,33.425v10c0,2.313,8.787,4.188,19.625,4.188  c10.839,0,19.625-1.875,19.625-4.188v-10C39.25,35.738,30.464,37.613,19.625,37.613z"/>
<linearGradient gradientTransform="matrix(1 0 0 1 -370.2002 -614.5742)" x1="370.2002" x2="409.4502" gradientUnits="userSpaceOnUse" y1="649.0938" y2="649.0938" id="svg1.SVGID_2_">
	<stop offset="0" style="stop-color:#B3B3B3"/>
	<stop offset="0.0171" style="stop-color:#B6B6B6"/>
	<stop offset="0.235" style="stop-color:#D7D7D7"/>
	<stop offset="0.4168" style="stop-color:#EBEBEB"/>
	<stop offset="0.5394" style="stop-color:#F2F2F2"/>
	<stop offset="0.6579" style="stop-color:#EEEEEE"/>
	<stop offset="0.7724" style="stop-color:#E3E3E3"/>
	<stop offset="0.8853" style="stop-color:#CFCFCF"/>
	<stop offset="0.9965" style="stop-color:#B4B4B4"/>
	<stop offset="1" style="stop-color:#B3B3B3"/>
</linearGradient>
<path fill="url(#svg1.SVGID_2_)" d="M19.625,37.613c10.839,0,19.625-1.875,19.625-4.188l-1.229-2c0,2.168-8.235,3.927-18.396,3.927  c-9.481,0-17.396-1.959-18.396-3.927l-1.229,2C0,35.738,8.787,37.613,19.625,37.613z"/>
<linearGradient gradientTransform="matrix(1 0 0 1 -370.2002 -614.5742)" x1="371.4297" x2="408.2217" gradientUnits="userSpaceOnUse" y1="646" y2="646" id="svg1.SVGID_3_">
	<stop offset="0" style="stop-color:#C9C9C9"/>
	<stop offset="1" style="stop-color:#808080"/>
</linearGradient>
<ellipse rx="18.396" fill="url(#svg1.SVGID_3_)" ry="3.926" cx="19.625" cy="31.425"/>
<linearGradient gradientTransform="matrix(1 0 0 1 -370.2002 -614.5742)" x1="370.2002" x2="409.4502" gradientUnits="userSpaceOnUse" y1="641.0938" y2="641.0938" id="svg1.SVGID_4_">
	<stop offset="0" style="stop-color:#4D4D4D"/>
	<stop offset="0.0558" style="stop-color:#5F5F5F"/>
	<stop offset="0.2103" style="stop-color:#8D8D8D"/>
	<stop offset="0.3479" style="stop-color:#AEAEAE"/>
	<stop offset="0.4623" style="stop-color:#C2C2C2"/>
	<stop offset="0.5394" style="stop-color:#C9C9C9"/>
	<stop offset="0.6247" style="stop-color:#C5C5C5"/>
	<stop offset="0.7072" style="stop-color:#BABABA"/>
	<stop offset="0.7885" style="stop-color:#A6A6A6"/>
	<stop offset="0.869" style="stop-color:#8B8B8B"/>
	<stop offset="0.9484" style="stop-color:#686868"/>
	<stop offset="1" style="stop-color:#4D4D4D"/>
</linearGradient>
<path fill="url(#svg1.SVGID_4_)" d="M19.625,23.613C8.787,23.613,0,21.738,0,19.425v10c0,2.313,8.787,4.188,19.625,4.188  c10.839,0,19.625-1.875,19.625-4.188v-10C39.25,21.738,30.464,23.613,19.625,23.613z"/>
<linearGradient gradientTransform="matrix(1 0 0 1 -370.2002 -614.5742)" x1="370.2002" x2="409.4502" gradientUnits="userSpaceOnUse" y1="635.0938" y2="635.0938" id="svg1.SVGID_5_">
	<stop offset="0" style="stop-color:#B3B3B3"/>
	<stop offset="0.0171" style="stop-color:#B6B6B6"/>
	<stop offset="0.235" style="stop-color:#D7D7D7"/>
	<stop offset="0.4168" style="stop-color:#EBEBEB"/>
	<stop offset="0.5394" style="stop-color:#F2F2F2"/>
	<stop offset="0.6579" style="stop-color:#EEEEEE"/>
	<stop offset="0.7724" style="stop-color:#E3E3E3"/>
	<stop offset="0.8853" style="stop-color:#CFCFCF"/>
	<stop offset="0.9965" style="stop-color:#B4B4B4"/>
	<stop offset="1" style="stop-color:#B3B3B3"/>
</linearGradient>
<path fill="url(#svg1.SVGID_5_)" d="M19.625,23.613c10.839,0,19.625-1.875,19.625-4.188l-1.229-2c0,2.168-8.235,3.926-18.396,3.926  c-9.481,0-17.396-1.959-18.396-3.926l-1.229,2C0,21.738,8.787,23.613,19.625,23.613z"/>
<linearGradient gradientTransform="matrix(1 0 0 1 -370.2002 -614.5742)" x1="371.4297" x2="408.2217" gradientUnits="userSpaceOnUse" y1="632" y2="632" id="svg1.SVGID_6_">
	<stop offset="0" style="stop-color:#C9C9C9"/>
	<stop offset="1" style="stop-color:#808080"/>
</linearGradient>
<ellipse rx="18.396" fill="url(#svg1.SVGID_6_)" ry="3.926" cx="19.625" cy="17.426"/>
<linearGradient gradientTransform="matrix(1 0 0 1 -370.2002 -614.5742)" x1="370.2002" x2="409.4502" gradientUnits="userSpaceOnUse" y1="627.5938" y2="627.5938" id="svg1.SVGID_7_">
	<stop offset="0" style="stop-color:#4D4D4D"/>
	<stop offset="0.0558" style="stop-color:#5F5F5F"/>
	<stop offset="0.2103" style="stop-color:#8D8D8D"/>
	<stop offset="0.3479" style="stop-color:#AEAEAE"/>
	<stop offset="0.4623" style="stop-color:#C2C2C2"/>
	<stop offset="0.5394" style="stop-color:#C9C9C9"/>
	<stop offset="0.6247" style="stop-color:#C5C5C5"/>
	<stop offset="0.7072" style="stop-color:#BABABA"/>
	<stop offset="0.7885" style="stop-color:#A6A6A6"/>
	<stop offset="0.869" style="stop-color:#8B8B8B"/>
	<stop offset="0.9484" style="stop-color:#686868"/>
	<stop offset="1" style="stop-color:#4D4D4D"/>
</linearGradient>
<path fill="url(#svg1.SVGID_7_)" d="M19.625,10.113C8.787,10.113,0,8.238,0,5.925v10c0,2.313,8.787,4.188,19.625,4.188  c10.839,0,19.625-1.875,19.625-4.188v-10C39.25,8.238,30.464,10.113,19.625,10.113z"/>
<linearGradient gradientTransform="matrix(1 0 0 1 -370.2002 -614.5742)" x1="370.2002" x2="409.4502" gradientUnits="userSpaceOnUse" y1="621.5938" y2="621.5938" id="svg1.SVGID_8_">
	<stop offset="0" style="stop-color:#B3B3B3"/>
	<stop offset="0.0171" style="stop-color:#B6B6B6"/>
	<stop offset="0.235" style="stop-color:#D7D7D7"/>
	<stop offset="0.4168" style="stop-color:#EBEBEB"/>
	<stop offset="0.5394" style="stop-color:#F2F2F2"/>
	<stop offset="0.6579" style="stop-color:#EEEEEE"/>
	<stop offset="0.7724" style="stop-color:#E3E3E3"/>
	<stop offset="0.8853" style="stop-color:#CFCFCF"/>
	<stop offset="0.9965" style="stop-color:#B4B4B4"/>
	<stop offset="1" style="stop-color:#B3B3B3"/>
</linearGradient>
<path fill="url(#svg1.SVGID_8_)" d="M19.625,10.113c10.839,0,19.625-1.875,19.625-4.188l-1.229-2c0,2.168-8.235,3.926-18.396,3.926  c-9.481,0-17.396-1.959-18.396-3.926L0,5.925C0,8.238,8.787,10.113,19.625,10.113z"/>
<linearGradient gradientTransform="matrix(1 0 0 1 -370.2002 -614.5742)" x1="371.4297" x2="408.2217" gradientUnits="userSpaceOnUse" y1="618.5" y2="618.5" id="svg1.SVGID_9_">
	<stop offset="0" style="stop-color:#C9C9C9"/>
	<stop offset="1" style="stop-color:#808080"/>
</linearGradient>
<ellipse rx="18.396" fill="url(#svg1.SVGID_9_)" ry="3.926" cx="19.625" cy="3.926"/>
<path fill="#FFFFFF" d="M31.291,46.792c0,0-4.313,0.578-7.249,0.694  C20.917,47.613,15,47.613,15,47.613l-2.443-10.279l-0.119-2.283l-1.231-1.842L9.789,23.024l-0.082-0.119L9.3,20.715l-1.45-1.44  L5.329,8.793c0,0,5.296,0.882,7.234,1.07s8.375,0.25,8.375,0.25l3,9.875l-0.25,1.313l1.063,2.168l2.312,9.644l-0.375,1.875  l1.627,2.193L31.291,46.792z" enable-background="new    " opacity="0.24"/>
</svg>
      </g>
    </g>
    <g text-rendering="geometricPrecision" stroke-miterlimit="1.45" shape-rendering="geometricPrecision" font-family="sans-serif" transform="matrix(1,0,0,1,-161,-94)" stroke-linecap="butt">
      <text x="733.5176" xml:space="preserve" y="396.1387" clip-path="url(#clipPath2)" stroke="none">DataVolume</text>
    </g>
    <g fill="rgb(51,204,204)" text-rendering="geometricPrecision" shape-rendering="geometricPrecision" transform="matrix(1,0,0,1,-161,-94)" stroke="rgb(51,204,204)">
      <rect x="646.75" y="456.5" clip-path="url(#clipPath2)" width="166" rx="4" ry="4" height="72" stroke="none"/>
    </g>
    <g font-size="17px" stroke-linecap="butt" transform="matrix(1,0,0,1,-161,-94)" text-rendering="geometricPrecision" font-family="'DejaVu Sans'" shape-rendering="geometricPrecision" stroke-miterlimit="1.45">
      <text x="705.217" xml:space="preserve" y="498.3853" clip-path="url(#clipPath2)" stroke="none">Nginx</text>
      <rect x="646.75" y="456.5" clip-path="url(#clipPath2)" fill="none" width="166" rx="4" ry="4" height="72"/>
    </g>
    <g fill="rgb(255,204,0)" text-rendering="geometricPrecision" shape-rendering="geometricPrecision" transform="matrix(1,0,0,1,-161,-94)" stroke="rgb(255,204,0)">
      <path d="M682.0625 386.0659 L691.9476 378.9149 L705.9274 378.9149 L715.8125 386.0659 L715.8125 396.1788 L705.9274 403.3298 L691.9476 403.3298 L682.0625 396.1788 Z" fill-rule="evenodd" clip-path="url(#clipPath2)" stroke="none"/>
    </g>
    <g text-rendering="geometricPrecision" stroke-miterlimit="1.45" shape-rendering="geometricPrecision" font-family="sans-serif" transform="matrix(1,0,0,1,-161,-94)" stroke-linecap="butt">
      <text x="687.6289" xml:space="preserve" y="395.2766" clip-path="url(#clipPath2)" stroke="none">dep</text>
      <path fill="none" d="M682.0625 386.0659 L691.9476 378.9149 L705.9274 378.9149 L715.8125 386.0659 L715.8125 396.1788 L705.9274 403.3298 L691.9476 403.3298 L682.0625 396.1788 Z" clip-path="url(#clipPath2)" fill-rule="evenodd"/>
    </g>
    <g fill="rgb(255,204,0)" text-rendering="geometricPrecision" shape-rendering="geometricPrecision" transform="matrix(1,0,0,1,-161,-94)" stroke="rgb(255,204,0)">
      <path d="M276.5 453.2361 L286.3851 446.0851 L300.3649 446.0851 L310.25 453.2361 L310.25 463.349 L300.3649 470.5 L286.3851 470.5 L276.5 463.349 Z" fill-rule="evenodd" clip-path="url(#clipPath2)" stroke="none"/>
    </g>
    <g text-rendering="geometricPrecision" stroke-miterlimit="1.45" shape-rendering="geometricPrecision" font-family="sans-serif" transform="matrix(1,0,0,1,-161,-94)" stroke-linecap="butt">
      <text x="282.0664" xml:space="preserve" y="462.4468" clip-path="url(#clipPath2)" stroke="none">dep</text>
      <path fill="none" d="M276.5 453.2361 L286.3851 446.0851 L300.3649 446.0851 L310.25 453.2361 L310.25 463.349 L300.3649 470.5 L286.3851 470.5 L276.5 463.349 Z" clip-path="url(#clipPath2)" fill-rule="evenodd"/>
    </g>
    <g fill="rgb(255,204,0)" text-rendering="geometricPrecision" shape-rendering="geometricPrecision" transform="matrix(1,0,0,1,-161,-94)" stroke="rgb(255,204,0)">
      <path d="M262.75 453.2361 L272.6351 446.0851 L286.6149 446.0851 L296.5 453.2361 L296.5 463.349 L286.6149 470.5 L272.6351 470.5 L262.75 463.349 Z" fill-rule="evenodd" clip-path="url(#clipPath2)" stroke="none"/>
    </g>
    <g text-rendering="geometricPrecision" stroke-miterlimit="1.45" shape-rendering="geometricPrecision" font-family="sans-serif" transform="matrix(1,0,0,1,-161,-94)" stroke-linecap="butt">
      <text x="267.9033" xml:space="preserve" y="462.4468" clip-path="url(#clipPath2)" stroke="none">App</text>
      <path fill="none" d="M262.75 453.2361 L272.6351 446.0851 L286.6149 446.0851 L296.5 453.2361 L296.5 463.349 L286.6149 470.5 L272.6351 470.5 L262.75 463.349 Z" clip-path="url(#clipPath2)" fill-rule="evenodd"/>
      <text x="277.6826" xml:space="preserve" y="206.2793" clip-path="url(#clipPath2)" stroke="none">1</text>
      <circle fill="none" r="9" clip-path="url(#clipPath2)" cx="281.5" cy="202.125"/>
      <text x="372.6826" xml:space="preserve" y="244.1543" clip-path="url(#clipPath2)" stroke="none">2</text>
      <circle fill="none" r="9" clip-path="url(#clipPath2)" cx="376.5" cy="240"/>
      <text x="606.6826" xml:space="preserve" y="244.1543" clip-path="url(#clipPath2)" stroke="none">3</text>
      <circle fill="none" r="9" clip-path="url(#clipPath2)" cx="610.5" cy="240"/>
      <text x="233.6826" xml:space="preserve" y="496.6543" clip-path="url(#clipPath2)" stroke="none">4</text>
      <circle fill="none" r="9" clip-path="url(#clipPath2)" cx="237.5" cy="492.5"/>
      <path fill="none" d="M259.5 181.269 L259.5 214.9811" clip-path="url(#clipPath2)"/>
      <path d="M259.5 222.9811 L264.5 210.9811 L259.5 213.9811 L254.5 210.9811 Z" clip-path="url(#clipPath2)" stroke="none"/>
      <path fill="none" d="M277.209 295.0341 L324.534 391.3301" clip-path="url(#clipPath2)"/>
      <path d="M328.0626 398.5099 L327.2571 385.5349 L324.093 390.4326 L318.2824 389.9455 Z" clip-path="url(#clipPath2)" stroke="none"/>
      <path fill="none" d="M342.4797 259 L402.5052 259" clip-path="url(#clipPath2)"/>
      <path d="M410.5052 259 L398.5052 254 L401.5052 259 L398.5052 264 Z" clip-path="url(#clipPath2)" stroke="none"/>
      <path fill="none" d="M576.4797 259 L636.5052 259" clip-path="url(#clipPath2)"/>
      <path d="M644.5052 259 L632.5052 254 L635.5052 259 L632.5052 264 Z" clip-path="url(#clipPath2)" stroke="none"/>
      <path fill="none" stroke-dasharray="6,2" d="M708.4072 294.9989 L680.6045 347.4201" clip-path="url(#clipPath2)"/>
      <path stroke-dasharray="6,2" d="M676.8561 354.4876 L686.8959 346.2291 L681.0731 346.5367 L678.0615 341.5436 Z" clip-path="url(#clipPath2)" stroke="none"/>
      <path fill="none" stroke-dasharray="6,2" d="M727.5 294.9989 L727.5 346.4876" clip-path="url(#clipPath2)"/>
      <path stroke-dasharray="6,2" d="M727.5 354.4876 L732.5 342.4876 L727.5 345.4876 L722.5 342.4876 Z" clip-path="url(#clipPath2)" stroke="none"/>
      <path fill="none" stroke-dasharray="6,2" d="M727.7181 378.8997 L728.9625 448.4742" clip-path="url(#clipPath2)"/>
      <path stroke-dasharray="6,2" d="M729.1056 456.473 L733.8902 444.3855 L728.9446 447.4744 L723.8918 444.5643 Z" clip-path="url(#clipPath2)" stroke="none"/>
      <path fill="none" stroke-dasharray="6,2" d="M676.1299 378.8997 L709.3302 449.2384" clip-path="url(#clipPath2)"/>
      <path stroke-dasharray="6,2" d="M712.745 456.473 L712.1444 443.4868 L708.9034 448.334 L703.1012 447.7553 Z" clip-path="url(#clipPath2)" stroke="none"/>
      <path fill="none" stroke-dasharray="6,2" d="M646.7344 479.9612 L436.6588 448.231" clip-path="url(#clipPath2)"/>
      <path stroke-dasharray="6,2" d="M428.7485 447.0362 L439.8672 453.7723 L437.6476 448.3804 L441.3607 443.8845 Z" clip-path="url(#clipPath2)" stroke="none"/>
      <path fill="none" stroke-dasharray="6,2" d="M719.7109 295.0304 L703.2753 371.0569" clip-path="url(#clipPath2)"/>
      <path stroke-dasharray="6,2" d="M701.5849 378.8763 L709.0076 368.2037 L703.4866 370.0795 L699.2333 366.0907 Z" clip-path="url(#clipPath2)" stroke="none"/>
      <path fill="none" stroke-dasharray="6,2" d="M702.6461 403.3243 L716.4788 448.8358" clip-path="url(#clipPath2)"/>
      <path stroke-dasharray="6,2" d="M718.8052 456.4901 L720.0995 443.5547 L716.188 447.879 L710.5317 446.4627 Z" clip-path="url(#clipPath2)" stroke="none"/>
    </g>
  </g>
</svg>
